<mxfile host="app.diagrams.net" agent="Mozilla/5.0 (Macintosh; Intel Mac OS X 10_15_7) AppleWebKit/537.36 (KHTML, like Gecko) Chrome/133.0.0.0 Safari/537.36" version="26.0.16" pages="4">
  <diagram name="Floor" id="or8AnJAg-VdDgSKIGb_t">
    <mxGraphModel dx="42400" dy="23975" grid="1" gridSize="10" guides="1" tooltips="1" connect="1" arrows="1" fold="1" page="0" pageScale="1" pageWidth="850" pageHeight="1100" math="0" shadow="0">
      <root>
        <mxCell id="0" />
        <mxCell id="1" style="" parent="0" />
        <mxCell id="X6O04JL51EcmdtVAwq3P-20" value="fe" style="rounded=0;whiteSpace=wrap;html=1;sketch=1;hachureGap=4;jiggle=2;curveFitting=1;fontFamily=Architects Daughter;fontSource=https%3A%2F%2Ffonts.googleapis.com%2Fcss%3Ffamily%3DArchitects%2BDaughter;fillColor=#f8cecc;strokeColor=#b85450;gradientColor=#ea6b66;dashed=1;" vertex="1" parent="1">
          <mxGeometry x="-4800" y="21600" width="33640" height="300" as="geometry" />
        </mxCell>
        <mxCell id="X6O04JL51EcmdtVAwq3P-10" value="Foundation" style="locked=1;" parent="0" />
        <mxCell id="X6O04JL51EcmdtVAwq3P-11" value="" style="whiteSpace=wrap;html=1;aspect=fixed;sketch=1;hachureGap=4;jiggle=2;curveFitting=1;fontFamily=Architects Daughter;fontSource=https%3A%2F%2Ffonts.googleapis.com%2Fcss%3Ffamily%3DArchitects%2BDaughter;fillColor=#647687;strokeWidth=10;perimeterSpacing=0;strokeColor=#314354;fontColor=#ffffff;" vertex="1" parent="X6O04JL51EcmdtVAwq3P-10">
          <mxGeometry x="600" y="-375" width="1200" height="1200" as="geometry" />
        </mxCell>
        <mxCell id="X6O04JL51EcmdtVAwq3P-12" value="" style="whiteSpace=wrap;html=1;aspect=fixed;sketch=1;hachureGap=4;jiggle=2;curveFitting=1;fontFamily=Architects Daughter;fontSource=https%3A%2F%2Ffonts.googleapis.com%2Fcss%3Ffamily%3DArchitects%2BDaughter;fillColor=#647687;strokeWidth=10;perimeterSpacing=0;strokeColor=#314354;fontColor=#ffffff;" vertex="1" parent="X6O04JL51EcmdtVAwq3P-10">
          <mxGeometry x="610" y="-375" width="1200" height="1200" as="geometry" />
        </mxCell>
        <mxCell id="X6O04JL51EcmdtVAwq3P-13" value="" style="whiteSpace=wrap;html=1;aspect=fixed;sketch=1;hachureGap=4;jiggle=2;curveFitting=1;fontFamily=Architects Daughter;fontSource=https%3A%2F%2Ffonts.googleapis.com%2Fcss%3Ffamily%3DArchitects%2BDaughter;fillColor=#647687;strokeWidth=10;perimeterSpacing=0;strokeColor=#314354;fontColor=#ffffff;" vertex="1" parent="X6O04JL51EcmdtVAwq3P-10">
          <mxGeometry x="600" y="11175" width="1200" height="1200" as="geometry" />
        </mxCell>
        <mxCell id="X6O04JL51EcmdtVAwq3P-14" value="" style="whiteSpace=wrap;html=1;aspect=fixed;sketch=1;hachureGap=4;jiggle=2;curveFitting=1;fontFamily=Architects Daughter;fontSource=https%3A%2F%2Ffonts.googleapis.com%2Fcss%3Ffamily%3DArchitects%2BDaughter;fillColor=#647687;strokeWidth=10;perimeterSpacing=0;strokeColor=#314354;fontColor=#ffffff;" vertex="1" parent="X6O04JL51EcmdtVAwq3P-10">
          <mxGeometry x="11400" y="-365" width="1200" height="1200" as="geometry" />
        </mxCell>
        <mxCell id="X6O04JL51EcmdtVAwq3P-15" value="" style="whiteSpace=wrap;html=1;aspect=fixed;sketch=1;hachureGap=4;jiggle=2;curveFitting=1;fontFamily=Architects Daughter;fontSource=https%3A%2F%2Ffonts.googleapis.com%2Fcss%3Ffamily%3DArchitects%2BDaughter;fillColor=#647687;strokeWidth=10;perimeterSpacing=0;strokeColor=#314354;fontColor=#ffffff;" vertex="1" parent="X6O04JL51EcmdtVAwq3P-10">
          <mxGeometry x="11400" y="-365" width="1200" height="1200" as="geometry" />
        </mxCell>
        <mxCell id="X6O04JL51EcmdtVAwq3P-16" value="" style="whiteSpace=wrap;html=1;aspect=fixed;sketch=1;hachureGap=4;jiggle=2;curveFitting=1;fontFamily=Architects Daughter;fontSource=https%3A%2F%2Ffonts.googleapis.com%2Fcss%3Ffamily%3DArchitects%2BDaughter;fillColor=#647687;strokeWidth=10;perimeterSpacing=0;strokeColor=#314354;fontColor=#ffffff;" vertex="1" parent="X6O04JL51EcmdtVAwq3P-10">
          <mxGeometry x="11400" y="11185" width="1200" height="1200" as="geometry" />
        </mxCell>
        <mxCell id="X6O04JL51EcmdtVAwq3P-17" value="" style="whiteSpace=wrap;html=1;aspect=fixed;sketch=1;hachureGap=4;jiggle=2;curveFitting=1;fontFamily=Architects Daughter;fontSource=https%3A%2F%2Ffonts.googleapis.com%2Fcss%3Ffamily%3DArchitects%2BDaughter;fillColor=#647687;strokeWidth=10;perimeterSpacing=0;strokeColor=#314354;fontColor=#ffffff;" vertex="1" parent="X6O04JL51EcmdtVAwq3P-10">
          <mxGeometry x="22200" y="-355" width="1200" height="1200" as="geometry" />
        </mxCell>
        <mxCell id="X6O04JL51EcmdtVAwq3P-18" value="" style="whiteSpace=wrap;html=1;aspect=fixed;sketch=1;hachureGap=4;jiggle=2;curveFitting=1;fontFamily=Architects Daughter;fontSource=https%3A%2F%2Ffonts.googleapis.com%2Fcss%3Ffamily%3DArchitects%2BDaughter;fillColor=#647687;strokeWidth=10;perimeterSpacing=0;strokeColor=#314354;fontColor=#ffffff;" vertex="1" parent="X6O04JL51EcmdtVAwq3P-10">
          <mxGeometry x="22200" y="-355" width="1200" height="1200" as="geometry" />
        </mxCell>
        <mxCell id="X6O04JL51EcmdtVAwq3P-19" value="" style="whiteSpace=wrap;html=1;aspect=fixed;sketch=1;hachureGap=4;jiggle=2;curveFitting=1;fontFamily=Architects Daughter;fontSource=https%3A%2F%2Ffonts.googleapis.com%2Fcss%3Ffamily%3DArchitects%2BDaughter;fillColor=#647687;strokeWidth=10;perimeterSpacing=0;strokeColor=#314354;fontColor=#ffffff;" vertex="1" parent="X6O04JL51EcmdtVAwq3P-10">
          <mxGeometry x="22200" y="11195" width="1200" height="1200" as="geometry" />
        </mxCell>
        <mxCell id="4VHC1bxbwxVJmu8-oFBH-21" value="Floor Framing" style="locked=1;" parent="0" />
        <mxCell id="4VHC1bxbwxVJmu8-oFBH-22" value="" style="rounded=0;whiteSpace=wrap;html=1;fillColor=#a20025;strokeColor=#000000;fontColor=#ffffff;strokeWidth=10;sketch=1;curveFitting=1;jiggle=2;" parent="4VHC1bxbwxVJmu8-oFBH-21" vertex="1">
          <mxGeometry width="24000" height="450" as="geometry" />
        </mxCell>
        <mxCell id="4VHC1bxbwxVJmu8-oFBH-23" value="" style="rounded=0;whiteSpace=wrap;html=1;fillColor=#a20025;strokeColor=#000000;fontColor=#ffffff;strokeWidth=10;sketch=1;curveFitting=1;jiggle=2;" parent="4VHC1bxbwxVJmu8-oFBH-21" vertex="1">
          <mxGeometry y="11550" width="24000" height="450" as="geometry" />
        </mxCell>
        <mxCell id="4VHC1bxbwxVJmu8-oFBH-24" value="" style="rounded=0;whiteSpace=wrap;html=1;fillColor=#a20025;strokeColor=#000000;fontColor=#ffffff;strokeWidth=10;sketch=1;curveFitting=1;jiggle=2;" parent="4VHC1bxbwxVJmu8-oFBH-21" vertex="1">
          <mxGeometry y="450" width="150" height="11100" as="geometry" />
        </mxCell>
        <mxCell id="4VHC1bxbwxVJmu8-oFBH-25" value="" style="rounded=0;whiteSpace=wrap;html=1;fillColor=#a20025;strokeColor=#000000;fontColor=#ffffff;strokeWidth=10;sketch=1;curveFitting=1;jiggle=2;" parent="4VHC1bxbwxVJmu8-oFBH-21" vertex="1">
          <mxGeometry x="2325" y="450" width="150" height="11100" as="geometry" />
        </mxCell>
        <mxCell id="4VHC1bxbwxVJmu8-oFBH-26" value="" style="rounded=0;whiteSpace=wrap;html=1;fillColor=#a20025;strokeColor=#000000;fontColor=#ffffff;strokeWidth=10;sketch=1;curveFitting=1;jiggle=2;" parent="4VHC1bxbwxVJmu8-oFBH-21" vertex="1">
          <mxGeometry x="4725" y="450" width="150" height="11100" as="geometry" />
        </mxCell>
        <mxCell id="4VHC1bxbwxVJmu8-oFBH-27" value="" style="rounded=0;whiteSpace=wrap;html=1;fillColor=#a20025;strokeColor=#000000;fontColor=#ffffff;strokeWidth=10;sketch=1;curveFitting=1;jiggle=2;" parent="4VHC1bxbwxVJmu8-oFBH-21" vertex="1">
          <mxGeometry x="7125" y="450" width="150" height="11100" as="geometry" />
        </mxCell>
        <mxCell id="4VHC1bxbwxVJmu8-oFBH-28" value="" style="rounded=0;whiteSpace=wrap;html=1;fillColor=#a20025;strokeColor=#000000;fontColor=#ffffff;strokeWidth=10;sketch=1;curveFitting=1;jiggle=2;" parent="4VHC1bxbwxVJmu8-oFBH-21" vertex="1">
          <mxGeometry x="9525" y="450" width="150" height="11100" as="geometry" />
        </mxCell>
        <mxCell id="4VHC1bxbwxVJmu8-oFBH-29" value="" style="rounded=0;whiteSpace=wrap;html=1;fillColor=#a20025;strokeColor=#000000;fontColor=#ffffff;strokeWidth=10;sketch=1;curveFitting=1;jiggle=2;" parent="4VHC1bxbwxVJmu8-oFBH-21" vertex="1">
          <mxGeometry x="11925" y="450" width="150" height="11100" as="geometry" />
        </mxCell>
        <mxCell id="4VHC1bxbwxVJmu8-oFBH-30" value="" style="rounded=0;whiteSpace=wrap;html=1;fillColor=#a20025;strokeColor=#000000;fontColor=#ffffff;strokeWidth=10;sketch=1;curveFitting=1;jiggle=2;" parent="4VHC1bxbwxVJmu8-oFBH-21" vertex="1">
          <mxGeometry x="14250" y="450" width="150" height="11101" as="geometry" />
        </mxCell>
        <mxCell id="4VHC1bxbwxVJmu8-oFBH-31" value="" style="rounded=0;whiteSpace=wrap;html=1;fillColor=#a20025;strokeColor=#000000;fontColor=#ffffff;strokeWidth=10;sketch=1;curveFitting=1;jiggle=2;" parent="4VHC1bxbwxVJmu8-oFBH-21" vertex="1">
          <mxGeometry x="16650" y="450" width="150" height="11101" as="geometry" />
        </mxCell>
        <mxCell id="4VHC1bxbwxVJmu8-oFBH-32" value="" style="rounded=0;whiteSpace=wrap;html=1;fillColor=#a20025;strokeColor=#000000;fontColor=#ffffff;strokeWidth=10;sketch=1;curveFitting=1;jiggle=2;" parent="4VHC1bxbwxVJmu8-oFBH-21" vertex="1">
          <mxGeometry x="19050" y="450" width="150" height="11101" as="geometry" />
        </mxCell>
        <mxCell id="4VHC1bxbwxVJmu8-oFBH-33" value="" style="rounded=0;whiteSpace=wrap;html=1;fillColor=#a20025;strokeColor=#000000;fontColor=#ffffff;strokeWidth=10;sketch=1;curveFitting=1;jiggle=2;" parent="4VHC1bxbwxVJmu8-oFBH-21" vertex="1">
          <mxGeometry x="21450" y="450" width="150" height="11101" as="geometry" />
        </mxCell>
        <mxCell id="4VHC1bxbwxVJmu8-oFBH-34" value="" style="rounded=0;whiteSpace=wrap;html=1;fillColor=#a20025;strokeColor=#000000;fontColor=#ffffff;strokeWidth=10;sketch=1;curveFitting=1;jiggle=2;" parent="4VHC1bxbwxVJmu8-oFBH-21" vertex="1">
          <mxGeometry x="23850" y="450" width="150" height="11101" as="geometry" />
        </mxCell>
        <mxCell id="4VHC1bxbwxVJmu8-oFBH-35" value="Floor Sheeting" style="locked=1;" parent="0" />
        <mxCell id="X6O04JL51EcmdtVAwq3P-1" value="" style="rounded=0;whiteSpace=wrap;html=1;strokeWidth=50;glass=0;sketch=1;curveFitting=1;jiggle=2;fillColor=#60a917;fontColor=#ffffff;strokeColor=#2D7600;" vertex="1" parent="4VHC1bxbwxVJmu8-oFBH-35">
          <mxGeometry width="9600" height="4800" as="geometry" />
        </mxCell>
        <mxCell id="X6O04JL51EcmdtVAwq3P-2" value="" style="rounded=0;whiteSpace=wrap;html=1;strokeWidth=50;glass=0;sketch=1;curveFitting=1;jiggle=2;fillColor=#60a917;fontColor=#ffffff;strokeColor=#2D7600;" vertex="1" parent="4VHC1bxbwxVJmu8-oFBH-35">
          <mxGeometry x="9600" width="9600" height="4800" as="geometry" />
        </mxCell>
        <mxCell id="X6O04JL51EcmdtVAwq3P-3" value="" style="rounded=0;whiteSpace=wrap;html=1;strokeWidth=50;glass=0;sketch=1;curveFitting=1;jiggle=2;fillColor=#60a917;fontColor=#ffffff;strokeColor=#2D7600;" vertex="1" parent="4VHC1bxbwxVJmu8-oFBH-35">
          <mxGeometry x="4800" y="4800" width="9600" height="4800" as="geometry" />
        </mxCell>
        <mxCell id="X6O04JL51EcmdtVAwq3P-4" value="" style="rounded=0;whiteSpace=wrap;html=1;strokeWidth=50;glass=0;sketch=1;curveFitting=1;jiggle=2;fillColor=#60a917;fontColor=#ffffff;strokeColor=#2D7600;" vertex="1" parent="4VHC1bxbwxVJmu8-oFBH-35">
          <mxGeometry x="14400" y="4830" width="9600" height="4800" as="geometry" />
        </mxCell>
        <mxCell id="X6O04JL51EcmdtVAwq3P-5" value="" style="rounded=0;whiteSpace=wrap;html=1;strokeWidth=50;glass=0;sketch=1;curveFitting=1;jiggle=2;fillColor=#60a917;fontColor=#ffffff;strokeColor=#2D7600;" vertex="1" parent="4VHC1bxbwxVJmu8-oFBH-35">
          <mxGeometry x="19200" width="4800" height="4800" as="geometry" />
        </mxCell>
        <mxCell id="X6O04JL51EcmdtVAwq3P-6" value="" style="rounded=0;whiteSpace=wrap;html=1;strokeWidth=50;glass=0;sketch=1;curveFitting=1;jiggle=2;fillColor=#60a917;fontColor=#ffffff;strokeColor=#2D7600;" vertex="1" parent="4VHC1bxbwxVJmu8-oFBH-35">
          <mxGeometry y="4800" width="4800" height="4800" as="geometry" />
        </mxCell>
        <mxCell id="X6O04JL51EcmdtVAwq3P-7" value="" style="rounded=0;whiteSpace=wrap;html=1;strokeWidth=50;glass=0;sketch=1;curveFitting=1;jiggle=2;fillColor=#60a917;fontColor=#ffffff;strokeColor=#2D7600;" vertex="1" parent="4VHC1bxbwxVJmu8-oFBH-35">
          <mxGeometry y="9600" width="9600" height="2400" as="geometry" />
        </mxCell>
        <mxCell id="X6O04JL51EcmdtVAwq3P-8" value="" style="rounded=0;whiteSpace=wrap;html=1;strokeWidth=50;glass=0;sketch=1;curveFitting=1;jiggle=2;fillColor=#60a917;fontColor=#ffffff;strokeColor=#2D7600;" vertex="1" parent="4VHC1bxbwxVJmu8-oFBH-35">
          <mxGeometry x="9600" y="9600" width="9600" height="2400" as="geometry" />
        </mxCell>
        <mxCell id="X6O04JL51EcmdtVAwq3P-9" value="" style="rounded=0;whiteSpace=wrap;html=1;strokeWidth=50;glass=0;sketch=1;curveFitting=1;jiggle=2;fillColor=#60a917;fontColor=#ffffff;strokeColor=#2D7600;" vertex="1" parent="4VHC1bxbwxVJmu8-oFBH-35">
          <mxGeometry x="19200" y="9600" width="4800" height="2400" as="geometry" />
        </mxCell>
      </root>
    </mxGraphModel>
  </diagram>
  <diagram name="Walls - A" id="FuAQgrPx6_P3PM0UK_gD">
    <mxGraphModel dx="34880" dy="19260" grid="1" gridSize="10" guides="1" tooltips="1" connect="1" arrows="1" fold="1" page="0" pageScale="1" pageWidth="850" pageHeight="1100" math="0" shadow="0">
      <root>
        <mxCell id="NQOZs4Xzeua7rKnrc0HZ-0" />
        <mxCell id="NQOZs4Xzeua7rKnrc0HZ-1" style="locked=1;" parent="NQOZs4Xzeua7rKnrc0HZ-0" />
        <mxCell id="NQOZs4Xzeua7rKnrc0HZ-2" value="fe" style="rounded=0;whiteSpace=wrap;html=1;sketch=1;hachureGap=4;jiggle=2;curveFitting=1;fontFamily=Architects Daughter;fontSource=https%3A%2F%2Ffonts.googleapis.com%2Fcss%3Ffamily%3DArchitects%2BDaughter;fillColor=#f8cecc;strokeColor=#b85450;gradientColor=#ea6b66;dashed=1;" vertex="1" parent="NQOZs4Xzeua7rKnrc0HZ-1">
          <mxGeometry x="-4800" y="21600" width="33640" height="300" as="geometry" />
        </mxCell>
        <mxCell id="NQOZs4Xzeua7rKnrc0HZ-13" value="Bottom Plate" style="locked=1;" parent="NQOZs4Xzeua7rKnrc0HZ-0" />
        <mxCell id="NQOZs4Xzeua7rKnrc0HZ-14" value="" style="rounded=0;whiteSpace=wrap;html=1;fillColor=#fa6800;strokeColor=#C73500;strokeWidth=10;sketch=1;curveFitting=1;jiggle=2;fontColor=#000000;" vertex="1" parent="NQOZs4Xzeua7rKnrc0HZ-13">
          <mxGeometry width="24000" height="550" as="geometry" />
        </mxCell>
        <mxCell id="NQOZs4Xzeua7rKnrc0HZ-15" value="" style="rounded=0;whiteSpace=wrap;html=1;fillColor=#fa6800;strokeColor=#C73500;strokeWidth=10;sketch=1;curveFitting=1;jiggle=2;fontColor=#000000;" vertex="1" parent="NQOZs4Xzeua7rKnrc0HZ-13">
          <mxGeometry y="11650" width="24000" height="350" as="geometry" />
        </mxCell>
        <mxCell id="iHxc4nJnVFEv3msy8ZtM-0" value="" style="rounded=0;whiteSpace=wrap;html=1;fillColor=#fa6800;strokeColor=#C73500;strokeWidth=10;sketch=1;curveFitting=1;jiggle=2;fontColor=#000000;" vertex="1" parent="NQOZs4Xzeua7rKnrc0HZ-13">
          <mxGeometry y="550" width="350" height="11100" as="geometry" />
        </mxCell>
        <mxCell id="iHxc4nJnVFEv3msy8ZtM-1" value="" style="rounded=0;whiteSpace=wrap;html=1;fillColor=#fa6800;strokeColor=#C73500;strokeWidth=10;sketch=1;curveFitting=1;jiggle=2;fontColor=#000000;" vertex="1" parent="NQOZs4Xzeua7rKnrc0HZ-13">
          <mxGeometry x="23650" y="550" width="350" height="11100" as="geometry" />
        </mxCell>
        <mxCell id="iHxc4nJnVFEv3msy8ZtM-2" value="Stud Layout" style="locked=1;" parent="NQOZs4Xzeua7rKnrc0HZ-0" />
        <mxCell id="iHxc4nJnVFEv3msy8ZtM-3" value="" style="rounded=0;whiteSpace=wrap;html=1;strokeWidth=10;sketch=1;curveFitting=1;jiggle=2;fillColor=#647687;fontColor=#ffffff;strokeColor=#314354;" vertex="1" parent="iHxc4nJnVFEv3msy8ZtM-2">
          <mxGeometry width="150" height="550" as="geometry" />
        </mxCell>
        <mxCell id="iHxc4nJnVFEv3msy8ZtM-4" value="" style="rounded=0;whiteSpace=wrap;html=1;fillColor=#647687;strokeColor=#314354;strokeWidth=10;sketch=1;curveFitting=1;jiggle=2;fontColor=#ffffff;" vertex="1" parent="iHxc4nJnVFEv3msy8ZtM-2">
          <mxGeometry y="11650" width="150" height="350" as="geometry" />
        </mxCell>
        <mxCell id="iHxc4nJnVFEv3msy8ZtM-5" value="" style="rounded=0;whiteSpace=wrap;html=1;fillColor=#647687;strokeColor=#314354;strokeWidth=10;sketch=1;curveFitting=1;jiggle=2;fontColor=#ffffff;" vertex="1" parent="iHxc4nJnVFEv3msy8ZtM-2">
          <mxGeometry y="550" width="350" height="150" as="geometry" />
        </mxCell>
        <mxCell id="iHxc4nJnVFEv3msy8ZtM-7" value="" style="rounded=0;whiteSpace=wrap;html=1;strokeWidth=10;sketch=1;curveFitting=1;jiggle=2;fillColor=#647687;fontColor=#ffffff;strokeColor=#314354;" vertex="1" parent="iHxc4nJnVFEv3msy8ZtM-2">
          <mxGeometry x="350" width="150" height="550" as="geometry" />
        </mxCell>
        <mxCell id="iHxc4nJnVFEv3msy8ZtM-8" value="" style="rounded=0;whiteSpace=wrap;html=1;strokeWidth=10;sketch=1;curveFitting=1;jiggle=2;fillColor=#647687;fontColor=#ffffff;strokeColor=#314354;direction=east;" vertex="1" parent="iHxc4nJnVFEv3msy8ZtM-2">
          <mxGeometry x="800" width="150" height="550" as="geometry" />
        </mxCell>
        <mxCell id="iHxc4nJnVFEv3msy8ZtM-11" value="" style="rounded=0;whiteSpace=wrap;html=1;strokeWidth=10;sketch=1;curveFitting=1;jiggle=2;fillColor=#647687;fontColor=#ffffff;strokeColor=#314354;direction=east;" vertex="1" parent="iHxc4nJnVFEv3msy8ZtM-2">
          <mxGeometry x="650" width="150" height="550" as="geometry" />
        </mxCell>
        <mxCell id="iHxc4nJnVFEv3msy8ZtM-15" value="" style="rounded=0;whiteSpace=wrap;html=1;strokeWidth=10;sketch=1;curveFitting=1;jiggle=2;fillColor=#647687;fontColor=#ffffff;strokeColor=#314354;direction=east;" vertex="1" parent="iHxc4nJnVFEv3msy8ZtM-2">
          <mxGeometry x="8150" width="150" height="550" as="geometry" />
        </mxCell>
        <mxCell id="iHxc4nJnVFEv3msy8ZtM-16" value="" style="rounded=0;whiteSpace=wrap;html=1;strokeWidth=10;sketch=1;curveFitting=1;jiggle=2;fillColor=#647687;fontColor=#ffffff;strokeColor=#314354;direction=east;" vertex="1" parent="iHxc4nJnVFEv3msy8ZtM-2">
          <mxGeometry x="8300" width="150" height="550" as="geometry" />
        </mxCell>
        <mxCell id="iHxc4nJnVFEv3msy8ZtM-17" value="" style="rounded=0;whiteSpace=wrap;html=1;strokeWidth=10;sketch=1;curveFitting=1;jiggle=2;fillColor=#647687;fontColor=#ffffff;strokeColor=#314354;direction=east;" vertex="1" parent="iHxc4nJnVFEv3msy8ZtM-2">
          <mxGeometry x="2325" width="150" height="550" as="geometry" />
        </mxCell>
        <mxCell id="iHxc4nJnVFEv3msy8ZtM-18" value="" style="rounded=0;whiteSpace=wrap;html=1;strokeWidth=10;sketch=1;curveFitting=1;jiggle=2;fillColor=#647687;fontColor=#ffffff;strokeColor=#314354;direction=east;" vertex="1" parent="iHxc4nJnVFEv3msy8ZtM-2">
          <mxGeometry x="4725" width="150" height="550" as="geometry" />
        </mxCell>
        <mxCell id="iHxc4nJnVFEv3msy8ZtM-19" value="" style="rounded=0;whiteSpace=wrap;html=1;strokeWidth=10;sketch=1;curveFitting=1;jiggle=2;fillColor=#647687;fontColor=#ffffff;strokeColor=#314354;direction=east;" vertex="1" parent="iHxc4nJnVFEv3msy8ZtM-2">
          <mxGeometry x="7125" width="150" height="550" as="geometry" />
        </mxCell>
        <mxCell id="iHxc4nJnVFEv3msy8ZtM-20" value="" style="rounded=0;whiteSpace=wrap;html=1;strokeWidth=10;sketch=1;curveFitting=1;jiggle=2;fillColor=#647687;fontColor=#ffffff;strokeColor=#314354;direction=east;" vertex="1" parent="iHxc4nJnVFEv3msy8ZtM-2">
          <mxGeometry x="9525" width="150" height="550" as="geometry" />
        </mxCell>
        <mxCell id="iHxc4nJnVFEv3msy8ZtM-21" value="" style="rounded=0;whiteSpace=wrap;html=1;strokeWidth=10;sketch=1;curveFitting=1;jiggle=2;fillColor=#647687;fontColor=#ffffff;strokeColor=#314354;direction=east;" vertex="1" parent="iHxc4nJnVFEv3msy8ZtM-2">
          <mxGeometry x="11925" width="150" height="550" as="geometry" />
        </mxCell>
        <mxCell id="iHxc4nJnVFEv3msy8ZtM-22" value="" style="rounded=0;whiteSpace=wrap;html=1;strokeWidth=10;sketch=1;curveFitting=1;jiggle=2;fillColor=#647687;fontColor=#ffffff;strokeColor=#314354;direction=east;" vertex="1" parent="iHxc4nJnVFEv3msy8ZtM-2">
          <mxGeometry x="14325" width="150" height="550" as="geometry" />
        </mxCell>
        <mxCell id="iHxc4nJnVFEv3msy8ZtM-23" value="" style="rounded=0;whiteSpace=wrap;html=1;strokeWidth=10;sketch=1;curveFitting=1;jiggle=2;fillColor=#647687;fontColor=#ffffff;strokeColor=#314354;direction=east;" vertex="1" parent="iHxc4nJnVFEv3msy8ZtM-2">
          <mxGeometry x="16725" width="150" height="550" as="geometry" />
        </mxCell>
        <mxCell id="iHxc4nJnVFEv3msy8ZtM-24" value="" style="rounded=0;whiteSpace=wrap;html=1;strokeWidth=10;sketch=1;curveFitting=1;jiggle=2;fillColor=#647687;fontColor=#ffffff;strokeColor=#314354;direction=east;" vertex="1" parent="iHxc4nJnVFEv3msy8ZtM-2">
          <mxGeometry x="19125" width="150" height="550" as="geometry" />
        </mxCell>
        <mxCell id="iHxc4nJnVFEv3msy8ZtM-25" value="" style="rounded=0;whiteSpace=wrap;html=1;strokeWidth=10;sketch=1;curveFitting=1;jiggle=2;fillColor=#647687;fontColor=#ffffff;strokeColor=#314354;direction=east;" vertex="1" parent="iHxc4nJnVFEv3msy8ZtM-2">
          <mxGeometry x="23850" width="150" height="550" as="geometry" />
        </mxCell>
        <mxCell id="iHxc4nJnVFEv3msy8ZtM-26" value="" style="rounded=0;whiteSpace=wrap;html=1;strokeWidth=10;sketch=1;curveFitting=1;jiggle=2;fillColor=#647687;fontColor=#ffffff;strokeColor=#314354;direction=east;" vertex="1" parent="iHxc4nJnVFEv3msy8ZtM-2">
          <mxGeometry x="23500" width="150" height="550" as="geometry" />
        </mxCell>
        <mxCell id="iHxc4nJnVFEv3msy8ZtM-27" value="" style="rounded=0;whiteSpace=wrap;html=1;strokeWidth=10;sketch=1;curveFitting=1;jiggle=2;fillColor=#647687;fontColor=#ffffff;strokeColor=#314354;direction=east;" vertex="1" parent="iHxc4nJnVFEv3msy8ZtM-2">
          <mxGeometry x="21550" width="150" height="550" as="geometry" />
        </mxCell>
        <mxCell id="iHxc4nJnVFEv3msy8ZtM-45" value="" style="rounded=0;whiteSpace=wrap;html=1;strokeWidth=10;sketch=1;curveFitting=1;jiggle=2;fillColor=#647687;fontColor=#ffffff;strokeColor=#314354;" vertex="1" parent="iHxc4nJnVFEv3msy8ZtM-2">
          <mxGeometry x="10" y="11650" width="150" height="350" as="geometry" />
        </mxCell>
        <mxCell id="iHxc4nJnVFEv3msy8ZtM-46" value="" style="rounded=0;whiteSpace=wrap;html=1;strokeWidth=10;sketch=1;curveFitting=1;jiggle=2;fillColor=#647687;fontColor=#ffffff;strokeColor=#314354;" vertex="1" parent="iHxc4nJnVFEv3msy8ZtM-2">
          <mxGeometry x="360" y="11650" width="150" height="350" as="geometry" />
        </mxCell>
        <mxCell id="iHxc4nJnVFEv3msy8ZtM-51" value="" style="rounded=0;whiteSpace=wrap;html=1;strokeWidth=10;sketch=1;curveFitting=1;jiggle=2;fillColor=#647687;fontColor=#ffffff;strokeColor=#314354;direction=east;" vertex="1" parent="iHxc4nJnVFEv3msy8ZtM-2">
          <mxGeometry x="2335" y="11650" width="150" height="350" as="geometry" />
        </mxCell>
        <mxCell id="iHxc4nJnVFEv3msy8ZtM-52" value="" style="rounded=0;whiteSpace=wrap;html=1;strokeWidth=10;sketch=1;curveFitting=1;jiggle=2;fillColor=#647687;fontColor=#ffffff;strokeColor=#314354;direction=east;" vertex="1" parent="iHxc4nJnVFEv3msy8ZtM-2">
          <mxGeometry x="4735" y="11650" width="150" height="350" as="geometry" />
        </mxCell>
        <mxCell id="iHxc4nJnVFEv3msy8ZtM-53" value="" style="rounded=0;whiteSpace=wrap;html=1;strokeWidth=10;sketch=1;curveFitting=1;jiggle=2;fillColor=#647687;fontColor=#ffffff;strokeColor=#314354;direction=east;" vertex="1" parent="iHxc4nJnVFEv3msy8ZtM-2">
          <mxGeometry x="7135" y="11650" width="150" height="350" as="geometry" />
        </mxCell>
        <mxCell id="iHxc4nJnVFEv3msy8ZtM-54" value="" style="rounded=0;whiteSpace=wrap;html=1;strokeWidth=10;sketch=1;curveFitting=1;jiggle=2;fillColor=#647687;fontColor=#ffffff;strokeColor=#314354;direction=east;" vertex="1" parent="iHxc4nJnVFEv3msy8ZtM-2">
          <mxGeometry x="9535" y="11650" width="150" height="350" as="geometry" />
        </mxCell>
        <mxCell id="iHxc4nJnVFEv3msy8ZtM-55" value="" style="rounded=0;whiteSpace=wrap;html=1;strokeWidth=10;sketch=1;curveFitting=1;jiggle=2;fillColor=#647687;fontColor=#ffffff;strokeColor=#314354;direction=east;" vertex="1" parent="iHxc4nJnVFEv3msy8ZtM-2">
          <mxGeometry x="11935" y="11650" width="150" height="350" as="geometry" />
        </mxCell>
        <mxCell id="iHxc4nJnVFEv3msy8ZtM-56" value="" style="rounded=0;whiteSpace=wrap;html=1;strokeWidth=10;sketch=1;curveFitting=1;jiggle=2;fillColor=#647687;fontColor=#ffffff;strokeColor=#314354;direction=east;" vertex="1" parent="iHxc4nJnVFEv3msy8ZtM-2">
          <mxGeometry x="14335" y="11650" width="150" height="350" as="geometry" />
        </mxCell>
        <mxCell id="iHxc4nJnVFEv3msy8ZtM-57" value="" style="rounded=0;whiteSpace=wrap;html=1;strokeWidth=10;sketch=1;curveFitting=1;jiggle=2;fillColor=#647687;fontColor=#ffffff;strokeColor=#314354;direction=east;" vertex="1" parent="iHxc4nJnVFEv3msy8ZtM-2">
          <mxGeometry x="16735" y="11650" width="150" height="350" as="geometry" />
        </mxCell>
        <mxCell id="iHxc4nJnVFEv3msy8ZtM-58" value="" style="rounded=0;whiteSpace=wrap;html=1;strokeWidth=10;sketch=1;curveFitting=1;jiggle=2;fillColor=#647687;fontColor=#ffffff;strokeColor=#314354;direction=east;" vertex="1" parent="iHxc4nJnVFEv3msy8ZtM-2">
          <mxGeometry x="19135" y="11650" width="150" height="350" as="geometry" />
        </mxCell>
        <mxCell id="iHxc4nJnVFEv3msy8ZtM-59" value="" style="rounded=0;whiteSpace=wrap;html=1;strokeWidth=10;sketch=1;curveFitting=1;jiggle=2;fillColor=#647687;fontColor=#ffffff;strokeColor=#314354;direction=east;" vertex="1" parent="iHxc4nJnVFEv3msy8ZtM-2">
          <mxGeometry x="23860" y="11650" width="150" height="350" as="geometry" />
        </mxCell>
        <mxCell id="iHxc4nJnVFEv3msy8ZtM-60" value="" style="rounded=0;whiteSpace=wrap;html=1;strokeWidth=10;sketch=1;curveFitting=1;jiggle=2;fillColor=#647687;fontColor=#ffffff;strokeColor=#314354;direction=east;" vertex="1" parent="iHxc4nJnVFEv3msy8ZtM-2">
          <mxGeometry x="23510" y="11650" width="150" height="350" as="geometry" />
        </mxCell>
        <mxCell id="iHxc4nJnVFEv3msy8ZtM-61" value="" style="rounded=0;whiteSpace=wrap;html=1;strokeWidth=10;sketch=1;curveFitting=1;jiggle=2;fillColor=#647687;fontColor=#ffffff;strokeColor=#314354;direction=east;" vertex="1" parent="iHxc4nJnVFEv3msy8ZtM-2">
          <mxGeometry x="21560" y="11650" width="150" height="350" as="geometry" />
        </mxCell>
        <mxCell id="iHxc4nJnVFEv3msy8ZtM-63" value="" style="rounded=0;whiteSpace=wrap;html=1;strokeWidth=10;sketch=1;curveFitting=1;jiggle=2;fillColor=#647687;fontColor=#ffffff;strokeColor=#314354;direction=east;" vertex="1" parent="iHxc4nJnVFEv3msy8ZtM-2">
          <mxGeometry x="16575" width="150" height="550" as="geometry" />
        </mxCell>
        <mxCell id="iHxc4nJnVFEv3msy8ZtM-64" value="" style="rounded=0;whiteSpace=wrap;html=1;strokeWidth=10;sketch=1;curveFitting=1;jiggle=2;fillColor=#647687;fontColor=#ffffff;strokeColor=#314354;direction=east;" vertex="1" parent="iHxc4nJnVFEv3msy8ZtM-2">
          <mxGeometry x="10570" width="150" height="550" as="geometry" />
        </mxCell>
        <mxCell id="iHxc4nJnVFEv3msy8ZtM-65" value="" style="rounded=0;whiteSpace=wrap;html=1;strokeWidth=10;sketch=1;curveFitting=1;jiggle=2;fillColor=#647687;fontColor=#ffffff;strokeColor=#314354;direction=east;" vertex="1" parent="iHxc4nJnVFEv3msy8ZtM-2">
          <mxGeometry x="10720" width="150" height="550" as="geometry" />
        </mxCell>
        <mxCell id="iHxc4nJnVFEv3msy8ZtM-66" value="" style="rounded=0;whiteSpace=wrap;html=1;fillColor=#647687;strokeColor=#314354;strokeWidth=10;sketch=1;curveFitting=1;jiggle=2;fontColor=#ffffff;" vertex="1" parent="iHxc4nJnVFEv3msy8ZtM-2">
          <mxGeometry y="2325" width="350" height="150" as="geometry" />
        </mxCell>
        <mxCell id="iHxc4nJnVFEv3msy8ZtM-67" value="" style="rounded=0;whiteSpace=wrap;html=1;fillColor=#647687;strokeColor=#314354;strokeWidth=10;sketch=1;curveFitting=1;jiggle=2;fontColor=#ffffff;" vertex="1" parent="iHxc4nJnVFEv3msy8ZtM-2">
          <mxGeometry y="4725" width="350" height="150" as="geometry" />
        </mxCell>
        <mxCell id="iHxc4nJnVFEv3msy8ZtM-68" value="" style="rounded=0;whiteSpace=wrap;html=1;fillColor=#647687;strokeColor=#314354;strokeWidth=10;sketch=1;curveFitting=1;jiggle=2;fontColor=#ffffff;" vertex="1" parent="iHxc4nJnVFEv3msy8ZtM-2">
          <mxGeometry y="7125" width="350" height="150" as="geometry" />
        </mxCell>
        <mxCell id="iHxc4nJnVFEv3msy8ZtM-69" value="" style="rounded=0;whiteSpace=wrap;html=1;fillColor=#647687;strokeColor=#314354;strokeWidth=10;sketch=1;curveFitting=1;jiggle=2;fontColor=#ffffff;" vertex="1" parent="iHxc4nJnVFEv3msy8ZtM-2">
          <mxGeometry y="9525" width="350" height="150" as="geometry" />
        </mxCell>
        <mxCell id="iHxc4nJnVFEv3msy8ZtM-70" value="" style="rounded=0;whiteSpace=wrap;html=1;fillColor=#647687;strokeColor=#314354;strokeWidth=10;sketch=1;curveFitting=1;jiggle=2;fontColor=#ffffff;" vertex="1" parent="iHxc4nJnVFEv3msy8ZtM-2">
          <mxGeometry y="11500" width="350" height="150" as="geometry" />
        </mxCell>
        <mxCell id="iHxc4nJnVFEv3msy8ZtM-77" value="" style="rounded=0;whiteSpace=wrap;html=1;fillColor=#647687;strokeColor=#314354;strokeWidth=10;sketch=1;curveFitting=1;jiggle=2;fontColor=#ffffff;" vertex="1" parent="iHxc4nJnVFEv3msy8ZtM-2">
          <mxGeometry x="23650" y="560" width="350" height="150" as="geometry" />
        </mxCell>
        <mxCell id="iHxc4nJnVFEv3msy8ZtM-78" value="" style="rounded=0;whiteSpace=wrap;html=1;fillColor=#647687;strokeColor=#314354;strokeWidth=10;sketch=1;curveFitting=1;jiggle=2;fontColor=#ffffff;" vertex="1" parent="iHxc4nJnVFEv3msy8ZtM-2">
          <mxGeometry x="23650" y="2335" width="350" height="150" as="geometry" />
        </mxCell>
        <mxCell id="iHxc4nJnVFEv3msy8ZtM-79" value="" style="rounded=0;whiteSpace=wrap;html=1;fillColor=#647687;strokeColor=#314354;strokeWidth=10;sketch=1;curveFitting=1;jiggle=2;fontColor=#ffffff;" vertex="1" parent="iHxc4nJnVFEv3msy8ZtM-2">
          <mxGeometry x="23650" y="4735" width="350" height="150" as="geometry" />
        </mxCell>
        <mxCell id="iHxc4nJnVFEv3msy8ZtM-80" value="" style="rounded=0;whiteSpace=wrap;html=1;fillColor=#647687;strokeColor=#314354;strokeWidth=10;sketch=1;curveFitting=1;jiggle=2;fontColor=#ffffff;" vertex="1" parent="iHxc4nJnVFEv3msy8ZtM-2">
          <mxGeometry x="23650" y="7135" width="350" height="150" as="geometry" />
        </mxCell>
        <mxCell id="iHxc4nJnVFEv3msy8ZtM-81" value="" style="rounded=0;whiteSpace=wrap;html=1;fillColor=#647687;strokeColor=#314354;strokeWidth=10;sketch=1;curveFitting=1;jiggle=2;fontColor=#ffffff;" vertex="1" parent="iHxc4nJnVFEv3msy8ZtM-2">
          <mxGeometry x="23650" y="9535" width="350" height="150" as="geometry" />
        </mxCell>
        <mxCell id="iHxc4nJnVFEv3msy8ZtM-82" value="" style="rounded=0;whiteSpace=wrap;html=1;fillColor=#647687;strokeColor=#314354;strokeWidth=10;sketch=1;curveFitting=1;jiggle=2;fontColor=#ffffff;" vertex="1" parent="iHxc4nJnVFEv3msy8ZtM-2">
          <mxGeometry x="23650" y="11510" width="350" height="150" as="geometry" />
        </mxCell>
        <mxCell id="iHxc4nJnVFEv3msy8ZtM-13" value="Fenstration" style="locked=1;" parent="NQOZs4Xzeua7rKnrc0HZ-0" />
        <mxCell id="iHxc4nJnVFEv3msy8ZtM-14" value="" style="rounded=0;whiteSpace=wrap;html=1;strokeWidth=10;sketch=1;curveFitting=1;jiggle=2;direction=east;" vertex="1" parent="iHxc4nJnVFEv3msy8ZtM-13">
          <mxGeometry x="950" width="7200" height="550" as="geometry" />
        </mxCell>
        <mxCell id="iHxc4nJnVFEv3msy8ZtM-62" value="" style="rounded=0;whiteSpace=wrap;html=1;strokeWidth=10;sketch=1;curveFitting=1;jiggle=2;direction=east;" vertex="1" parent="iHxc4nJnVFEv3msy8ZtM-13">
          <mxGeometry x="10720" width="6000" height="550" as="geometry" />
        </mxCell>
      </root>
    </mxGraphModel>
  </diagram>
  <diagram name="Walls - B" id="g9rlyJp-eXw_T71yIrv4">
    <mxGraphModel dx="34880" dy="19260" grid="1" gridSize="10" guides="1" tooltips="1" connect="1" arrows="1" fold="1" page="0" pageScale="1" pageWidth="850" pageHeight="1100" math="0" shadow="0">
      <root>
        <mxCell id="CnHnuYt2Sz1P_fZKWPzo-0" />
        <mxCell id="CnHnuYt2Sz1P_fZKWPzo-1" style="locked=1;" parent="CnHnuYt2Sz1P_fZKWPzo-0" />
        <mxCell id="CnHnuYt2Sz1P_fZKWPzo-2" value="fe" style="rounded=0;whiteSpace=wrap;html=1;sketch=1;hachureGap=4;jiggle=2;curveFitting=1;fontFamily=Architects Daughter;fontSource=https%3A%2F%2Ffonts.googleapis.com%2Fcss%3Ffamily%3DArchitects%2BDaughter;fillColor=#f8cecc;strokeColor=#b85450;gradientColor=#ea6b66;dashed=1;" vertex="1" parent="CnHnuYt2Sz1P_fZKWPzo-1">
          <mxGeometry x="-4800" y="21600" width="33640" height="300" as="geometry" />
        </mxCell>
        <mxCell id="CnHnuYt2Sz1P_fZKWPzo-3" value="Bottom Plate" style="locked=1;" parent="CnHnuYt2Sz1P_fZKWPzo-0" />
        <mxCell id="CnHnuYt2Sz1P_fZKWPzo-4" value="" style="rounded=0;whiteSpace=wrap;html=1;fillColor=#fa6800;strokeColor=#C73500;strokeWidth=10;sketch=1;curveFitting=1;jiggle=2;fontColor=#000000;" vertex="1" parent="CnHnuYt2Sz1P_fZKWPzo-3">
          <mxGeometry width="24000" height="550" as="geometry" />
        </mxCell>
        <mxCell id="CnHnuYt2Sz1P_fZKWPzo-6" value="" style="rounded=0;whiteSpace=wrap;html=1;fillColor=#fa6800;strokeColor=#C73500;strokeWidth=10;sketch=1;curveFitting=1;jiggle=2;fontColor=#000000;" vertex="1" parent="CnHnuYt2Sz1P_fZKWPzo-3">
          <mxGeometry y="550" width="350" height="11100" as="geometry" />
        </mxCell>
        <mxCell id="CnHnuYt2Sz1P_fZKWPzo-7" value="" style="rounded=0;whiteSpace=wrap;html=1;fillColor=#fa6800;strokeColor=#C73500;strokeWidth=10;sketch=1;curveFitting=1;jiggle=2;fontColor=#000000;" vertex="1" parent="CnHnuYt2Sz1P_fZKWPzo-3">
          <mxGeometry x="23650" y="550" width="350" height="11100" as="geometry" />
        </mxCell>
        <mxCell id="CnHnuYt2Sz1P_fZKWPzo-8" value="Stud Layout" style="locked=1;" parent="CnHnuYt2Sz1P_fZKWPzo-0" />
        <mxCell id="CnHnuYt2Sz1P_fZKWPzo-9" value="" style="rounded=0;whiteSpace=wrap;html=1;strokeWidth=10;sketch=1;curveFitting=1;jiggle=2;fillColor=#647687;fontColor=#ffffff;strokeColor=#314354;" vertex="1" parent="CnHnuYt2Sz1P_fZKWPzo-8">
          <mxGeometry width="150" height="550" as="geometry" />
        </mxCell>
        <mxCell id="CnHnuYt2Sz1P_fZKWPzo-11" value="" style="rounded=0;whiteSpace=wrap;html=1;fillColor=#647687;strokeColor=#314354;strokeWidth=10;sketch=1;curveFitting=1;jiggle=2;fontColor=#ffffff;" vertex="1" parent="CnHnuYt2Sz1P_fZKWPzo-8">
          <mxGeometry y="550" width="350" height="150" as="geometry" />
        </mxCell>
        <mxCell id="CnHnuYt2Sz1P_fZKWPzo-12" value="" style="rounded=0;whiteSpace=wrap;html=1;strokeWidth=10;sketch=1;curveFitting=1;jiggle=2;fillColor=#647687;fontColor=#ffffff;strokeColor=#314354;" vertex="1" parent="CnHnuYt2Sz1P_fZKWPzo-8">
          <mxGeometry x="350" width="150" height="550" as="geometry" />
        </mxCell>
        <mxCell id="CnHnuYt2Sz1P_fZKWPzo-17" value="" style="rounded=0;whiteSpace=wrap;html=1;strokeWidth=10;sketch=1;curveFitting=1;jiggle=2;fillColor=#647687;fontColor=#ffffff;strokeColor=#314354;direction=east;" vertex="1" parent="CnHnuYt2Sz1P_fZKWPzo-8">
          <mxGeometry x="2325" width="150" height="550" as="geometry" />
        </mxCell>
        <mxCell id="CnHnuYt2Sz1P_fZKWPzo-18" value="" style="rounded=0;whiteSpace=wrap;html=1;strokeWidth=10;sketch=1;curveFitting=1;jiggle=2;fillColor=#647687;fontColor=#ffffff;strokeColor=#314354;direction=east;" vertex="1" parent="CnHnuYt2Sz1P_fZKWPzo-8">
          <mxGeometry x="4725" width="150" height="550" as="geometry" />
        </mxCell>
        <mxCell id="CnHnuYt2Sz1P_fZKWPzo-19" value="" style="rounded=0;whiteSpace=wrap;html=1;strokeWidth=10;sketch=1;curveFitting=1;jiggle=2;fillColor=#647687;fontColor=#ffffff;strokeColor=#314354;direction=east;" vertex="1" parent="CnHnuYt2Sz1P_fZKWPzo-8">
          <mxGeometry x="7125" width="150" height="550" as="geometry" />
        </mxCell>
        <mxCell id="CnHnuYt2Sz1P_fZKWPzo-20" value="" style="rounded=0;whiteSpace=wrap;html=1;strokeWidth=10;sketch=1;curveFitting=1;jiggle=2;fillColor=#647687;fontColor=#ffffff;strokeColor=#314354;direction=east;" vertex="1" parent="CnHnuYt2Sz1P_fZKWPzo-8">
          <mxGeometry x="9525" width="150" height="550" as="geometry" />
        </mxCell>
        <mxCell id="CnHnuYt2Sz1P_fZKWPzo-21" value="" style="rounded=0;whiteSpace=wrap;html=1;strokeWidth=10;sketch=1;curveFitting=1;jiggle=2;fillColor=#647687;fontColor=#ffffff;strokeColor=#314354;direction=east;" vertex="1" parent="CnHnuYt2Sz1P_fZKWPzo-8">
          <mxGeometry x="11925" width="150" height="550" as="geometry" />
        </mxCell>
        <mxCell id="CnHnuYt2Sz1P_fZKWPzo-22" value="" style="rounded=0;whiteSpace=wrap;html=1;strokeWidth=10;sketch=1;curveFitting=1;jiggle=2;fillColor=#647687;fontColor=#ffffff;strokeColor=#314354;direction=east;" vertex="1" parent="CnHnuYt2Sz1P_fZKWPzo-8">
          <mxGeometry x="14325" width="150" height="550" as="geometry" />
        </mxCell>
        <mxCell id="CnHnuYt2Sz1P_fZKWPzo-23" value="" style="rounded=0;whiteSpace=wrap;html=1;strokeWidth=10;sketch=1;curveFitting=1;jiggle=2;fillColor=#647687;fontColor=#ffffff;strokeColor=#314354;direction=east;" vertex="1" parent="CnHnuYt2Sz1P_fZKWPzo-8">
          <mxGeometry x="16725" width="150" height="550" as="geometry" />
        </mxCell>
        <mxCell id="CnHnuYt2Sz1P_fZKWPzo-24" value="" style="rounded=0;whiteSpace=wrap;html=1;strokeWidth=10;sketch=1;curveFitting=1;jiggle=2;fillColor=#647687;fontColor=#ffffff;strokeColor=#314354;direction=east;" vertex="1" parent="CnHnuYt2Sz1P_fZKWPzo-8">
          <mxGeometry x="19125" width="150" height="550" as="geometry" />
        </mxCell>
        <mxCell id="CnHnuYt2Sz1P_fZKWPzo-25" value="" style="rounded=0;whiteSpace=wrap;html=1;strokeWidth=10;sketch=1;curveFitting=1;jiggle=2;fillColor=#647687;fontColor=#ffffff;strokeColor=#314354;direction=east;" vertex="1" parent="CnHnuYt2Sz1P_fZKWPzo-8">
          <mxGeometry x="23850" width="150" height="550" as="geometry" />
        </mxCell>
        <mxCell id="CnHnuYt2Sz1P_fZKWPzo-26" value="" style="rounded=0;whiteSpace=wrap;html=1;strokeWidth=10;sketch=1;curveFitting=1;jiggle=2;fillColor=#647687;fontColor=#ffffff;strokeColor=#314354;direction=east;" vertex="1" parent="CnHnuYt2Sz1P_fZKWPzo-8">
          <mxGeometry x="23500" width="150" height="550" as="geometry" />
        </mxCell>
        <mxCell id="CnHnuYt2Sz1P_fZKWPzo-27" value="" style="rounded=0;whiteSpace=wrap;html=1;strokeWidth=10;sketch=1;curveFitting=1;jiggle=2;fillColor=#647687;fontColor=#ffffff;strokeColor=#314354;direction=east;" vertex="1" parent="CnHnuYt2Sz1P_fZKWPzo-8">
          <mxGeometry x="21550" width="150" height="550" as="geometry" />
        </mxCell>
        <mxCell id="CnHnuYt2Sz1P_fZKWPzo-44" value="" style="rounded=0;whiteSpace=wrap;html=1;fillColor=#647687;strokeColor=#314354;strokeWidth=10;sketch=1;curveFitting=1;jiggle=2;fontColor=#ffffff;" vertex="1" parent="CnHnuYt2Sz1P_fZKWPzo-8">
          <mxGeometry y="2325" width="350" height="150" as="geometry" />
        </mxCell>
        <mxCell id="CnHnuYt2Sz1P_fZKWPzo-45" value="" style="rounded=0;whiteSpace=wrap;html=1;fillColor=#647687;strokeColor=#314354;strokeWidth=10;sketch=1;curveFitting=1;jiggle=2;fontColor=#ffffff;" vertex="1" parent="CnHnuYt2Sz1P_fZKWPzo-8">
          <mxGeometry y="4725" width="350" height="150" as="geometry" />
        </mxCell>
        <mxCell id="CnHnuYt2Sz1P_fZKWPzo-46" value="" style="rounded=0;whiteSpace=wrap;html=1;fillColor=#647687;strokeColor=#314354;strokeWidth=10;sketch=1;curveFitting=1;jiggle=2;fontColor=#ffffff;" vertex="1" parent="CnHnuYt2Sz1P_fZKWPzo-8">
          <mxGeometry y="7125" width="350" height="150" as="geometry" />
        </mxCell>
        <mxCell id="CnHnuYt2Sz1P_fZKWPzo-47" value="" style="rounded=0;whiteSpace=wrap;html=1;fillColor=#647687;strokeColor=#314354;strokeWidth=10;sketch=1;curveFitting=1;jiggle=2;fontColor=#ffffff;" vertex="1" parent="CnHnuYt2Sz1P_fZKWPzo-8">
          <mxGeometry y="9525" width="350" height="150" as="geometry" />
        </mxCell>
        <mxCell id="CnHnuYt2Sz1P_fZKWPzo-49" value="" style="rounded=0;whiteSpace=wrap;html=1;fillColor=#647687;strokeColor=#314354;strokeWidth=10;sketch=1;curveFitting=1;jiggle=2;fontColor=#ffffff;" vertex="1" parent="CnHnuYt2Sz1P_fZKWPzo-8">
          <mxGeometry x="23650" y="560" width="350" height="150" as="geometry" />
        </mxCell>
        <mxCell id="CnHnuYt2Sz1P_fZKWPzo-50" value="" style="rounded=0;whiteSpace=wrap;html=1;fillColor=#647687;strokeColor=#314354;strokeWidth=10;sketch=1;curveFitting=1;jiggle=2;fontColor=#ffffff;" vertex="1" parent="CnHnuYt2Sz1P_fZKWPzo-8">
          <mxGeometry x="23650" y="2335" width="350" height="150" as="geometry" />
        </mxCell>
        <mxCell id="CnHnuYt2Sz1P_fZKWPzo-51" value="" style="rounded=0;whiteSpace=wrap;html=1;fillColor=#647687;strokeColor=#314354;strokeWidth=10;sketch=1;curveFitting=1;jiggle=2;fontColor=#ffffff;" vertex="1" parent="CnHnuYt2Sz1P_fZKWPzo-8">
          <mxGeometry x="23650" y="4735" width="350" height="150" as="geometry" />
        </mxCell>
        <mxCell id="CnHnuYt2Sz1P_fZKWPzo-52" value="" style="rounded=0;whiteSpace=wrap;html=1;fillColor=#647687;strokeColor=#314354;strokeWidth=10;sketch=1;curveFitting=1;jiggle=2;fontColor=#ffffff;" vertex="1" parent="CnHnuYt2Sz1P_fZKWPzo-8">
          <mxGeometry x="23650" y="7135" width="350" height="150" as="geometry" />
        </mxCell>
        <mxCell id="CnHnuYt2Sz1P_fZKWPzo-53" value="" style="rounded=0;whiteSpace=wrap;html=1;fillColor=#647687;strokeColor=#314354;strokeWidth=10;sketch=1;curveFitting=1;jiggle=2;fontColor=#ffffff;" vertex="1" parent="CnHnuYt2Sz1P_fZKWPzo-8">
          <mxGeometry x="23650" y="9535" width="350" height="150" as="geometry" />
        </mxCell>
        <mxCell id="CnHnuYt2Sz1P_fZKWPzo-55" value="Fenstration" style="locked=1;" parent="CnHnuYt2Sz1P_fZKWPzo-0" />
        <mxCell id="CnHnuYt2Sz1P_fZKWPzo-57" value="" style="rounded=0;whiteSpace=wrap;html=1;strokeWidth=10;sketch=1;curveFitting=1;jiggle=2;direction=east;" vertex="1" parent="CnHnuYt2Sz1P_fZKWPzo-55">
          <mxGeometry x="9600" width="4800" height="550" as="geometry" />
        </mxCell>
        <mxCell id="meGdKK5z0KTq4vbfE1x8-0" value="" style="rounded=0;whiteSpace=wrap;html=1;strokeWidth=10;sketch=1;curveFitting=1;jiggle=2;direction=east;" vertex="1" parent="CnHnuYt2Sz1P_fZKWPzo-55">
          <mxGeometry x="2400" y="10" width="4800" height="550" as="geometry" />
        </mxCell>
        <mxCell id="meGdKK5z0KTq4vbfE1x8-1" value="" style="rounded=0;whiteSpace=wrap;html=1;strokeWidth=10;sketch=1;curveFitting=1;jiggle=2;direction=east;" vertex="1" parent="CnHnuYt2Sz1P_fZKWPzo-55">
          <mxGeometry x="16800" width="4800" height="550" as="geometry" />
        </mxCell>
      </root>
    </mxGraphModel>
  </diagram>
  <diagram name="Roof" id="ZbrD3JYSenguHtl-ClDN">
    <mxGraphModel dx="34880" dy="20460" grid="1" gridSize="10" guides="1" tooltips="1" connect="1" arrows="1" fold="1" page="0" pageScale="1" pageWidth="850" pageHeight="1100" math="0" shadow="0">
      <root>
        <mxCell id="o7-Hd6kInpkmllyBtTe3-0" />
        <mxCell id="o7-Hd6kInpkmllyBtTe3-1" style="locked=1;" parent="o7-Hd6kInpkmllyBtTe3-0" />
        <mxCell id="o7-Hd6kInpkmllyBtTe3-2" value="fe" style="rounded=0;whiteSpace=wrap;html=1;sketch=1;hachureGap=4;jiggle=2;curveFitting=1;fontFamily=Architects Daughter;fontSource=https%3A%2F%2Ffonts.googleapis.com%2Fcss%3Ffamily%3DArchitects%2BDaughter;fillColor=#f8cecc;strokeColor=#b85450;gradientColor=#ea6b66;dashed=1;" vertex="1" parent="o7-Hd6kInpkmllyBtTe3-1">
          <mxGeometry x="-4800" y="21600" width="33640" height="300" as="geometry" />
        </mxCell>
        <mxCell id="YgwiHXz29kRA__S_sjQy-2" value="" style="rounded=0;whiteSpace=wrap;html=1;strokeWidth=10;sketch=1;curveFitting=1;jiggle=2;" vertex="1" parent="o7-Hd6kInpkmllyBtTe3-1">
          <mxGeometry width="24000" height="12000" as="geometry" />
        </mxCell>
        <mxCell id="o7-Hd6kInpkmllyBtTe3-13" value="Framing" style="locked=1;" parent="o7-Hd6kInpkmllyBtTe3-0" />
        <mxCell id="o7-Hd6kInpkmllyBtTe3-15" value="" style="rounded=0;whiteSpace=wrap;html=1;fillColor=#fa6800;strokeColor=#C73500;fontColor=#000000;strokeWidth=10;sketch=1;curveFitting=1;jiggle=2;" vertex="1" parent="o7-Hd6kInpkmllyBtTe3-13">
          <mxGeometry x="-1150" y="13000" width="26300" height="150" as="geometry" />
        </mxCell>
        <mxCell id="o7-Hd6kInpkmllyBtTe3-16" value="" style="rounded=0;whiteSpace=wrap;html=1;fillColor=#fa6800;strokeColor=#C73500;fontColor=#000000;strokeWidth=10;sketch=1;curveFitting=1;jiggle=2;" vertex="1" parent="o7-Hd6kInpkmllyBtTe3-13">
          <mxGeometry x="1" y="-1000" width="150" height="14000" as="geometry" />
        </mxCell>
        <mxCell id="o7-Hd6kInpkmllyBtTe3-17" value="" style="rounded=0;whiteSpace=wrap;html=1;fillColor=#fa6800;strokeColor=#C73500;fontColor=#000000;strokeWidth=10;sketch=1;curveFitting=1;jiggle=2;" vertex="1" parent="o7-Hd6kInpkmllyBtTe3-13">
          <mxGeometry x="2326" y="-1000" width="150" height="14000" as="geometry" />
        </mxCell>
        <mxCell id="o7-Hd6kInpkmllyBtTe3-18" value="" style="rounded=0;whiteSpace=wrap;html=1;fillColor=#fa6800;strokeColor=#C73500;fontColor=#000000;strokeWidth=10;sketch=1;curveFitting=1;jiggle=2;" vertex="1" parent="o7-Hd6kInpkmllyBtTe3-13">
          <mxGeometry x="4726" y="-1000" width="150" height="14000" as="geometry" />
        </mxCell>
        <mxCell id="o7-Hd6kInpkmllyBtTe3-19" value="" style="rounded=0;whiteSpace=wrap;html=1;fillColor=#fa6800;strokeColor=#C73500;fontColor=#000000;strokeWidth=10;sketch=1;curveFitting=1;jiggle=2;" vertex="1" parent="o7-Hd6kInpkmllyBtTe3-13">
          <mxGeometry x="7126" y="-1000" width="150" height="14000" as="geometry" />
        </mxCell>
        <mxCell id="o7-Hd6kInpkmllyBtTe3-20" value="" style="rounded=0;whiteSpace=wrap;html=1;fillColor=#fa6800;strokeColor=#C73500;fontColor=#000000;strokeWidth=10;sketch=1;curveFitting=1;jiggle=2;" vertex="1" parent="o7-Hd6kInpkmllyBtTe3-13">
          <mxGeometry x="9526" y="-1000" width="150" height="14000" as="geometry" />
        </mxCell>
        <mxCell id="o7-Hd6kInpkmllyBtTe3-21" value="" style="rounded=0;whiteSpace=wrap;html=1;fillColor=#fa6800;strokeColor=#C73500;fontColor=#000000;strokeWidth=10;sketch=1;curveFitting=1;jiggle=2;" vertex="1" parent="o7-Hd6kInpkmllyBtTe3-13">
          <mxGeometry x="11926" y="-1000" width="150" height="14000" as="geometry" />
        </mxCell>
        <mxCell id="o7-Hd6kInpkmllyBtTe3-22" value="" style="rounded=0;whiteSpace=wrap;html=1;fillColor=#fa6800;strokeColor=#C73500;fontColor=#000000;strokeWidth=10;sketch=1;curveFitting=1;jiggle=2;" vertex="1" parent="o7-Hd6kInpkmllyBtTe3-13">
          <mxGeometry x="14326" y="-1000" width="150" height="14000" as="geometry" />
        </mxCell>
        <mxCell id="o7-Hd6kInpkmllyBtTe3-23" value="" style="rounded=0;whiteSpace=wrap;html=1;fillColor=#fa6800;strokeColor=#C73500;fontColor=#000000;strokeWidth=10;sketch=1;curveFitting=1;jiggle=2;" vertex="1" parent="o7-Hd6kInpkmllyBtTe3-13">
          <mxGeometry x="16726" y="-1000" width="150" height="14000" as="geometry" />
        </mxCell>
        <mxCell id="o7-Hd6kInpkmllyBtTe3-24" value="" style="rounded=0;whiteSpace=wrap;html=1;fillColor=#fa6800;strokeColor=#C73500;fontColor=#000000;strokeWidth=10;sketch=1;curveFitting=1;jiggle=2;" vertex="1" parent="o7-Hd6kInpkmllyBtTe3-13">
          <mxGeometry x="19126" y="-1000" width="150" height="14000" as="geometry" />
        </mxCell>
        <mxCell id="o7-Hd6kInpkmllyBtTe3-25" value="" style="rounded=0;whiteSpace=wrap;html=1;fillColor=#fa6800;strokeColor=#C73500;fontColor=#000000;strokeWidth=10;sketch=1;curveFitting=1;jiggle=2;" vertex="1" parent="o7-Hd6kInpkmllyBtTe3-13">
          <mxGeometry x="21526" y="-1000" width="150" height="14000" as="geometry" />
        </mxCell>
        <mxCell id="o7-Hd6kInpkmllyBtTe3-26" value="" style="rounded=0;whiteSpace=wrap;html=1;fillColor=#fa6800;strokeColor=#C73500;fontColor=#000000;strokeWidth=10;sketch=1;curveFitting=1;jiggle=2;" vertex="1" parent="o7-Hd6kInpkmllyBtTe3-13">
          <mxGeometry x="23851" y="-1000" width="150" height="14000" as="geometry" />
        </mxCell>
        <mxCell id="YgwiHXz29kRA__S_sjQy-3" value="" style="rounded=0;whiteSpace=wrap;html=1;fillColor=#fa6800;strokeColor=#C73500;fontColor=#000000;strokeWidth=10;sketch=1;curveFitting=1;jiggle=2;" vertex="1" parent="o7-Hd6kInpkmllyBtTe3-13">
          <mxGeometry x="-1150" y="-1000" width="150" height="14000" as="geometry" />
        </mxCell>
        <mxCell id="YgwiHXz29kRA__S_sjQy-4" value="" style="rounded=0;whiteSpace=wrap;html=1;fillColor=#fa6800;strokeColor=#C73500;fontColor=#000000;strokeWidth=10;sketch=1;curveFitting=1;jiggle=2;" vertex="1" parent="o7-Hd6kInpkmllyBtTe3-13">
          <mxGeometry x="25000" y="-1000" width="150" height="14000" as="geometry" />
        </mxCell>
        <mxCell id="FQ9s27SATwsvLmWQpT9e-2" value="" style="rounded=0;whiteSpace=wrap;html=1;fillColor=#fa6800;strokeColor=#C73500;fontColor=#000000;strokeWidth=10;sketch=1;curveFitting=1;jiggle=2;" vertex="1" parent="o7-Hd6kInpkmllyBtTe3-13">
          <mxGeometry x="24001" y="-1000" width="150" height="14000" as="geometry" />
        </mxCell>
        <mxCell id="FQ9s27SATwsvLmWQpT9e-3" value="" style="rounded=0;whiteSpace=wrap;html=1;fillColor=#fa6800;strokeColor=#C73500;fontColor=#000000;strokeWidth=10;sketch=1;curveFitting=1;jiggle=2;" vertex="1" parent="o7-Hd6kInpkmllyBtTe3-13">
          <mxGeometry x="-149" y="-1000" width="150" height="14000" as="geometry" />
        </mxCell>
        <mxCell id="FQ9s27SATwsvLmWQpT9e-10" value="" style="rounded=0;whiteSpace=wrap;html=1;fillColor=#fa6800;strokeColor=#C73500;fontColor=#000000;strokeWidth=10;sketch=1;curveFitting=1;jiggle=2;" vertex="1" parent="o7-Hd6kInpkmllyBtTe3-13">
          <mxGeometry x="-1150" y="-1150" width="26300" height="150" as="geometry" />
        </mxCell>
        <mxCell id="FQ9s27SATwsvLmWQpT9e-11" value="Facia" style="locked=1;" parent="o7-Hd6kInpkmllyBtTe3-0" />
        <mxCell id="FQ9s27SATwsvLmWQpT9e-13" value="" style="rounded=0;whiteSpace=wrap;html=1;fillColor=#647687;strokeColor=#314354;fontColor=#ffffff;strokeWidth=10;sketch=1;curveFitting=1;jiggle=2;" vertex="1" parent="FQ9s27SATwsvLmWQpT9e-11">
          <mxGeometry x="-1200" y="13150" width="26400" height="50" as="geometry" />
        </mxCell>
        <mxCell id="FQ9s27SATwsvLmWQpT9e-14" value="" style="rounded=0;whiteSpace=wrap;html=1;fillColor=#647687;strokeColor=#314354;fontColor=#ffffff;strokeWidth=10;sketch=1;curveFitting=1;jiggle=2;direction=south;" vertex="1" parent="FQ9s27SATwsvLmWQpT9e-11">
          <mxGeometry x="-1200" y="-1150" width="50" height="14300" as="geometry" />
        </mxCell>
        <mxCell id="FQ9s27SATwsvLmWQpT9e-16" value="" style="rounded=0;whiteSpace=wrap;html=1;fillColor=#647687;strokeColor=#314354;fontColor=#ffffff;strokeWidth=10;sketch=1;curveFitting=1;jiggle=2;direction=south;" vertex="1" parent="FQ9s27SATwsvLmWQpT9e-11">
          <mxGeometry x="25150" y="-1150" width="50" height="14300" as="geometry" />
        </mxCell>
        <mxCell id="FQ9s27SATwsvLmWQpT9e-29" value="" style="rounded=0;whiteSpace=wrap;html=1;fillColor=#647687;strokeColor=#314354;fontColor=#ffffff;strokeWidth=10;sketch=1;curveFitting=1;jiggle=2;" vertex="1" parent="FQ9s27SATwsvLmWQpT9e-11">
          <mxGeometry x="-1200" y="-1200" width="26400" height="50" as="geometry" />
        </mxCell>
        <mxCell id="FQ9s27SATwsvLmWQpT9e-5" value="Sheeting" style="locked=1;" parent="o7-Hd6kInpkmllyBtTe3-0" />
        <mxCell id="FQ9s27SATwsvLmWQpT9e-22" value="" style="rounded=0;whiteSpace=wrap;html=1;strokeWidth=10;glass=0;sketch=1;curveFitting=1;jiggle=2;fillColor=#60a917;fontColor=#ffffff;strokeColor=#2D7600;" vertex="1" parent="FQ9s27SATwsvLmWQpT9e-5">
          <mxGeometry x="-1200" y="-1200" width="8400" height="4800" as="geometry" />
        </mxCell>
        <mxCell id="FQ9s27SATwsvLmWQpT9e-23" value="" style="rounded=0;whiteSpace=wrap;html=1;strokeWidth=10;glass=0;sketch=1;curveFitting=1;jiggle=2;fillColor=#60a917;fontColor=#ffffff;strokeColor=#2D7600;" vertex="1" parent="FQ9s27SATwsvLmWQpT9e-5">
          <mxGeometry x="7200" y="-1200" width="9600" height="4800" as="geometry" />
        </mxCell>
        <mxCell id="FQ9s27SATwsvLmWQpT9e-24" value="" style="rounded=0;whiteSpace=wrap;html=1;strokeWidth=10;glass=0;sketch=1;curveFitting=1;jiggle=2;fillColor=#60a917;fontColor=#ffffff;strokeColor=#2D7600;" vertex="1" parent="FQ9s27SATwsvLmWQpT9e-5">
          <mxGeometry x="16800" y="-1200" width="8400" height="4800" as="geometry" />
        </mxCell>
        <mxCell id="FQ9s27SATwsvLmWQpT9e-25" value="" style="rounded=0;whiteSpace=wrap;html=1;strokeWidth=10;glass=0;sketch=1;curveFitting=1;jiggle=2;fillColor=#60a917;fontColor=#ffffff;strokeColor=#2D7600;" vertex="1" parent="FQ9s27SATwsvLmWQpT9e-5">
          <mxGeometry x="2400" y="3600" width="9600" height="4800" as="geometry" />
        </mxCell>
        <mxCell id="FQ9s27SATwsvLmWQpT9e-26" value="" style="rounded=0;whiteSpace=wrap;html=1;strokeWidth=10;glass=0;sketch=1;curveFitting=1;jiggle=2;fillColor=#60a917;fontColor=#ffffff;strokeColor=#2D7600;" vertex="1" parent="FQ9s27SATwsvLmWQpT9e-5">
          <mxGeometry x="12000" y="3600" width="9600" height="4800" as="geometry" />
        </mxCell>
        <mxCell id="FQ9s27SATwsvLmWQpT9e-27" value="" style="rounded=0;whiteSpace=wrap;html=1;strokeWidth=10;glass=0;sketch=1;curveFitting=1;jiggle=2;fillColor=#60a917;fontColor=#ffffff;strokeColor=#2D7600;" vertex="1" parent="FQ9s27SATwsvLmWQpT9e-5">
          <mxGeometry x="-1200" y="3600" width="3600" height="4800" as="geometry" />
        </mxCell>
        <mxCell id="FQ9s27SATwsvLmWQpT9e-28" value="" style="rounded=0;whiteSpace=wrap;html=1;strokeWidth=10;glass=0;sketch=1;curveFitting=1;jiggle=2;fillColor=#60a917;fontColor=#ffffff;strokeColor=#2D7600;" vertex="1" parent="FQ9s27SATwsvLmWQpT9e-5">
          <mxGeometry x="21600" y="3600" width="3600" height="4800" as="geometry" />
        </mxCell>
        <mxCell id="FQ9s27SATwsvLmWQpT9e-30" value="" style="rounded=0;whiteSpace=wrap;html=1;strokeWidth=10;glass=0;sketch=1;curveFitting=1;jiggle=2;fillColor=#60a917;fontColor=#ffffff;strokeColor=#2D7600;" vertex="1" parent="FQ9s27SATwsvLmWQpT9e-5">
          <mxGeometry x="-1190" y="8400" width="8400" height="4800" as="geometry" />
        </mxCell>
        <mxCell id="FQ9s27SATwsvLmWQpT9e-31" value="" style="rounded=0;whiteSpace=wrap;html=1;strokeWidth=10;glass=0;sketch=1;curveFitting=1;jiggle=2;fillColor=#60a917;fontColor=#ffffff;strokeColor=#2D7600;" vertex="1" parent="FQ9s27SATwsvLmWQpT9e-5">
          <mxGeometry x="7210" y="8400" width="9600" height="4800" as="geometry" />
        </mxCell>
        <mxCell id="FQ9s27SATwsvLmWQpT9e-32" value="" style="rounded=0;whiteSpace=wrap;html=1;strokeWidth=10;glass=0;sketch=1;curveFitting=1;jiggle=2;fillColor=#60a917;fontColor=#ffffff;strokeColor=#2D7600;" vertex="1" parent="FQ9s27SATwsvLmWQpT9e-5">
          <mxGeometry x="16810" y="8400" width="8400" height="4800" as="geometry" />
        </mxCell>
      </root>
    </mxGraphModel>
  </diagram>
</mxfile>
